<svg width="26" height="26" viewBox="0 0 26 26" fill="none" xmlns="http://www.w3.org/2000/svg">
<path d="M24.5654 10.0655C24.8998 10.4269 24.8998 10.9691 24.5654 11.3584L22.9353 13.138C22.6009 13.4994 22.0854 13.4994 21.7232 13.138L21.3609 12.7209C21.0823 12.4567 20.9708 11.984 21.124 11.7477C21.4027 11.5531 21.3052 10.9691 20.7897 10.4548C20.0652 9.6484 19.1177 9.6206 18.7555 10.0377C18.6022 10.1628 18.1146 10.7189 18.1146 10.7189L15.8714 8.35546L16.2337 7.96619C16.2337 7.96619 16.3312 7.86887 16.5123 7.64643C17.209 6.90959 16.4845 6.06153 16.4845 6.06153C14.506 3.99005 11.7474 4.01785 11.7474 4.01785L11.7195 3.28101C17.2647 1.76563 19.3546 4.35151 20.107 5.15786L21.7092 6.86788C22.0993 7.28496 21.7092 8.48058 22.2805 9.16181C22.5591 9.45377 22.9214 9.57889 23.1861 9.57889C23.4926 9.28693 23.9802 9.38425 24.2171 9.67621L24.5654 10.0655ZM14.715 14.4309L20.0512 19.5331C20.8036 20.3395 20.7757 21.6324 20.0234 22.4805C19.2292 23.2868 18.0171 23.2869 17.2647 22.4527L12.3883 16.9473L7.8323 22.8003C7.41432 23.2869 6.64803 23.2869 6.20218 22.8003L5.01791 21.5073C4.55813 21.0485 4.55813 20.2422 5.01791 19.7556L10.2287 14.5838L7.72084 11.9979C6.89882 11.1638 6.41117 10.8996 5.74241 11.1221C5.07364 11.3862 4.14015 11.3862 3.2624 10.7745C1.38149 9.48157 1.50688 7.06252 1.50688 7.06252L1.66014 6.79837C1.66014 6.79837 3.35992 7.96619 3.56891 8.09131C3.84757 8.31375 4.78105 8.77254 5.63095 7.38228C6.5087 5.99202 5.7842 5.11616 5.53342 4.96323C5.32443 4.8381 3.62464 3.64248 3.62464 3.64248L3.7779 3.37833C3.7779 3.37833 5.74241 2.30783 7.59545 3.47565C7.59545 3.54516 8.05523 3.83712 8.23635 3.99005C9.42063 5.11616 9.42063 6.38129 9.21164 7.41008C9.03051 8.34156 9.21164 8.67522 9.90827 9.48157L12.4301 12.1648L15.4256 8.89766L17.613 11.2889L14.715 14.4309ZM19.3546 21.7715C19.7447 21.3822 19.7447 20.6454 19.3546 20.2144C18.9645 19.7973 18.3236 19.7973 17.9056 20.2144C17.5434 20.6315 17.5434 21.3405 17.9056 21.7298C18.3236 22.1468 18.9645 22.2164 19.3546 21.7576V21.7715ZM14.9937 25.9701L15.2863 25.8449L15.4395 25.4557C15.5231 25.2471 15.6067 25.0525 15.6067 25.0525C15.6207 25.0386 15.8018 25.0803 16.0247 25.122C16.373 25.2054 16.4427 25.2054 16.4845 25.1776C16.5123 25.1637 16.582 25.1498 16.6238 25.1498C16.7074 25.1637 16.7213 25.1498 16.8189 25.0525L16.9303 24.9413L17.1254 25.122C17.2368 25.2193 17.3344 25.2888 17.3483 25.2749C17.3622 25.261 17.418 25.1637 17.4876 25.0664C17.5852 24.9135 17.627 24.8717 17.6827 24.8717H17.7523V25.0525C17.7523 25.1498 17.7523 25.2332 17.7663 25.2332C17.7802 25.2332 18.0728 25.0108 18.2121 24.8996C18.2679 24.8578 18.3515 24.8578 18.3515 24.8996C18.3515 24.9135 18.3375 24.983 18.3097 25.0525C18.2957 25.122 18.2818 25.1776 18.2818 25.1776C18.2818 25.1776 18.3932 25.1081 18.5326 25.0247C18.6719 24.9413 18.7834 24.8717 18.7834 24.8717C18.7834 24.8717 18.7694 24.9552 18.7276 25.0525C18.6858 25.1776 18.6719 25.2193 18.6998 25.2054C18.7137 25.1915 18.8112 25.1776 18.8948 25.1637C19.0202 25.1359 19.062 25.122 19.1038 25.0664L19.1595 24.9969L19.4103 25.0664C19.5497 25.1081 19.6751 25.1359 19.689 25.1359C19.7029 25.1359 19.7447 25.0803 19.7865 25.0108C19.8283 24.9413 19.8701 24.8856 19.884 24.8856C19.898 24.8856 19.9398 24.9274 19.9816 24.9691L20.0652 25.0525L20.2463 24.983L20.4274 24.9135L20.5807 24.983C20.6643 25.0247 20.8175 25.0942 20.929 25.1359L21.124 25.2193V25.0386V24.8578H21.2076C21.2634 24.8578 21.3052 24.8856 21.3609 24.9274C21.4027 24.9691 21.4445 24.9969 21.4584 24.9969C21.4724 24.9969 21.5281 24.9691 21.5838 24.9274C21.6535 24.8856 21.7232 24.8578 21.765 24.8578C21.8067 24.8578 21.8485 24.8578 21.8485 24.8717C21.8485 24.8717 21.8207 24.9413 21.7928 25.0247C21.765 25.1081 21.751 25.1637 21.751 25.1776C21.751 25.1776 21.8067 25.1637 21.8625 25.1359C21.96 25.0942 22.0018 25.0803 22.5034 25.0803H23.0468L23.2975 24.9691C23.4369 24.9135 23.5483 24.8578 23.5623 24.8578C23.5762 24.8578 23.5901 24.9135 23.6041 24.983L23.618 25.1081L23.9106 25.0942C24.2032 25.0803 24.2032 25.0803 24.4261 25.1637L24.6629 25.2471L24.8162 25.0525C24.8998 24.9413 24.9834 24.8578 24.9834 24.8578C24.9973 24.8578 25.067 24.8856 25.1506 24.9413L25.3038 25.0247L25.5407 24.9274C25.6661 24.8717 25.7776 24.8161 25.7915 24.8022C25.8054 24.7744 25.7497 19.6305 25.7358 19.6027C25.7358 19.6027 25.6522 19.6027 25.5407 19.6027C25.4153 19.6166 25.3596 19.6305 25.3596 19.6444C25.3596 19.6861 25.3178 19.6861 25.3038 19.6444C25.2899 19.6305 25.262 19.5888 25.2202 19.5888C25.1784 19.5749 25.1645 19.5471 25.1645 19.5192C25.1784 19.4914 25.2063 19.3385 25.2342 19.1717L25.2899 18.8658L25.2063 18.6712L25.1227 18.4766L25.1645 17.8648L25.2063 17.2531L25.067 17.0724C24.9416 16.9056 24.9277 16.8778 24.9695 16.8638C24.9973 16.8499 25.1645 16.7387 25.3596 16.6136L25.694 16.3912V15.5153C25.694 15.0287 25.68 14.3614 25.6661 14.0138L25.6522 13.3882L25.5407 13.416C25.485 13.4299 25.4292 13.4299 25.4153 13.4299C25.4014 13.416 25.4571 13.3048 25.5128 13.1797C25.5825 13.0545 25.6243 12.9433 25.6243 12.9294C25.6243 12.9294 25.5128 12.985 25.4014 13.0406C25.276 13.1101 25.1784 13.1658 25.1645 13.1519C25.1645 13.1519 25.1367 12.9155 25.1088 12.6514L25.067 12.1648L25.3038 11.9145C25.6104 11.567 25.6382 11.5114 25.6382 10.9274V10.4965L25.5686 10.3991C25.5268 10.3435 25.471 10.2462 25.4432 10.1767L25.4014 10.0377L25.5128 9.81523L25.6243 9.59279L25.5825 5.92251C25.5546 3.90663 25.5407 2.1271 25.5407 1.97417V1.71002H25.7497C25.9587 1.71002 25.9587 1.71002 25.9865 1.64051C26.0144 1.57099 26.0005 1.52929 25.9308 1.29294C25.8611 1.0705 25.8333 1.01489 25.7915 1.02879C25.6243 1.0705 25.5128 1.09831 25.485 1.0844C25.471 1.0705 25.4432 0.959279 25.4014 0.848058C25.3317 0.570006 25.276 0.528299 25.067 0.556104C24.7744 0.597812 24.4679 0.500494 24.2171 0.278052C24.022 0.0973182 23.9524 0.0556104 23.8827 0.0556104C23.8131 0.0556104 23.7991 0.0834156 23.827 0.194636C23.8409 0.250247 23.8409 0.291955 23.827 0.291955C23.813 0.291955 23.618 0.305857 23.3811 0.31976L22.9492 0.333662L22.8378 0.250247C22.782 0.208539 22.7124 0.166831 22.6984 0.166831C22.6845 0.166831 22.6288 0.236344 22.573 0.333662C22.5173 0.417078 22.4616 0.500494 22.4616 0.500494C22.4477 0.500494 22.3919 0.430981 22.3223 0.361468L22.1969 0.222442L22.0854 0.347565L21.9739 0.472688L21.8207 0.430981C21.6674 0.389273 21.6535 0.389273 21.0962 0.430981L20.5249 0.472688L20.4135 0.347565L20.302 0.222442L20.2881 0.347565L20.2742 0.472688H19.898H19.5218V0.347565V0.222442L19.4661 0.264149C19.4382 0.291955 19.3128 0.403175 19.1874 0.500494L18.9784 0.69513L17.9613 0.667325L16.9443 0.63952L16.7631 0.75074C16.6099 0.848058 16.5681 0.861961 16.5541 0.834156C16.5402 0.820253 16.5263 0.792448 16.5263 0.778545C16.5263 0.764643 16.4984 0.681227 16.4705 0.583909L16.4148 0.417078H16.2058H15.9968L15.8854 0.278052C15.7739 0.152929 15.7739 0.139026 15.5789 0.0973182C15.4674 0.069513 15.3002 0.0556104 15.2166 0.0556104H15.0494L15.0215 0.194636C15.0076 0.264149 14.9798 0.333662 14.9658 0.347565C14.9519 0.347565 14.9101 0.291955 14.8683 0.208539C14.8265 0.125123 14.7708 0.0556104 14.7429 0.0417078C14.729 0.0417078 14.4503 0.0278052 14.1299 0.0139026L13.5586 0L13.5168 0.180734L13.475 0.361468H13.3496C13.2382 0.361468 13.2242 0.361468 13.1964 0.264149C13.1406 0.0834156 13.1546 0.0973182 12.8759 0.111221C12.6948 0.125123 12.5973 0.152929 12.4997 0.208539L12.3743 0.264149L12.1654 0.194636C12.026 0.152929 11.8449 0.125123 11.5802 0.0973182C11.0089 0.0278052 11.0925 0 10.7024 0.37537C10.3541 0.69513 10.3402 0.709032 10.2566 0.917571C10.2009 1.04269 10.1591 1.14001 10.1591 1.15392C10.1451 1.16782 10.0197 1.14001 9.86647 1.0844C9.69928 1.02879 9.50422 0.987084 9.35096 0.973182C9.21164 0.959279 9.10017 0.945377 9.08624 0.945377C9.05838 0.917571 9.00265 0.472688 9.01658 0.403175C9.03051 0.361468 9.03051 0.31976 9.01658 0.305857C9.00265 0.291955 8.94692 0.291955 8.87725 0.291955C8.79366 0.291955 8.71006 0.264149 8.62647 0.236344C8.515 0.180734 8.48714 0.180734 8.09702 0.180734C7.44219 0.180734 7.3168 0.208539 6.96848 0.361468L6.67589 0.500494L6.04892 0.542201L5.40802 0.583909L5.25476 0.430981L5.08757 0.264149L4.71139 0.305857L4.34914 0.361468L4.20982 0.291955C4.08442 0.222442 4.07049 0.208539 4.07049 0.111221C4.05656 0.0139026 4.05656 1.96807e-08 4.01476 0.0139026C3.75004 0.0834156 3.76397 0.069513 3.72217 0.222442L3.68037 0.361468H3.42959H3.1788L3.10914 0.236344C3.08127 0.166831 3.03947 0.111221 3.02554 0.111221C2.95588 0.111221 2.64936 0.291955 2.55183 0.389273L2.44037 0.500494L2.24531 0.430981C2.10599 0.389273 2.02239 0.347565 1.95273 0.278052L1.8552 0.180734L1.60441 0.250247C1.46508 0.291955 1.28396 0.333662 1.18643 0.333662C1.0471 0.361468 1.01924 0.361468 0.907777 0.472688C0.838114 0.542201 0.71272 0.625617 0.643057 0.653422C0.573394 0.681227 0.406202 0.778545 0.294741 0.861961C0.057886 1.0566 0.0718186 0.973182 0.127549 1.65441L0.169347 2.11319L0.252943 2.21051L0.336539 2.30783L0.294741 2.44686C0.169347 2.87784 0.127549 3.60077 0.0996839 6.04763L0.0857513 7.52131L0.169347 8.09131C0.225078 8.41107 0.266876 8.71693 0.266876 8.77254V8.86986L0.587327 8.85595C0.893845 8.84205 0.907777 8.84205 0.879912 8.88376C0.86598 8.91156 0.810249 9.06449 0.740586 9.23132L0.629125 9.52328L0.740586 9.6345C0.796316 9.69011 0.907777 9.78743 0.977441 9.84304C1.0471 9.89865 1.1307 10.0099 1.18643 10.0794L1.27003 10.2045L1.1725 10.3991C1.11677 10.4965 1.06104 10.5938 1.0471 10.6077C1.03317 10.6216 0.963508 10.5938 0.893845 10.5521C0.810249 10.5104 0.754518 10.4826 0.754518 10.4826C0.754518 10.4965 0.796316 10.566 0.838114 10.6494L0.92171 10.8023L0.698788 11.0109L0.475865 11.2194L0.517663 11.5948C0.545529 11.8033 0.559461 11.9701 0.559461 11.984C0.559461 11.984 0.475865 12.0118 0.39227 12.0536L0.211145 12.1092L0.197212 12.2343C0.197212 12.3455 0.197212 12.3733 0.266876 12.4706C0.336539 12.554 0.350472 12.6236 0.39227 12.8182L0.434068 13.0684L0.308674 13.1797L0.18328 13.2909L0.336539 13.3604L0.489798 13.4299L0.475865 13.555C0.448 13.8609 0.39227 14.3614 0.406202 14.3614C0.406202 14.3614 0.517663 14.3614 0.643057 14.3475C0.768451 14.3336 0.879912 14.3336 0.879912 14.3336C0.893845 14.3475 0.838114 14.5699 0.810249 14.6255C0.796316 14.6533 0.726653 14.6672 0.489798 14.6811C0.322606 14.695 0.18328 14.695 0.169347 14.7089C0.155415 14.7228 0.127549 16.2243 0.0996839 18.0456C0.0718186 19.8668 0.0300207 22.1468 0.016088 23.1061C0.00215539 24.2183 -0.0117773 24.8578 0.016088 24.8717C0.0300207 24.8856 0.0300207 24.983 0.016088 25.122C0.00215539 25.2471 0.0021554 25.3444 0.0021554 25.3444C0.0300207 25.3722 0.782384 24.9969 0.852047 24.9413C0.893845 24.8996 0.963508 24.8578 0.991373 24.8578C1.01924 24.8578 1.2143 24.7744 1.42329 24.6771L1.79947 24.4964L2.23138 24.5659C2.66329 24.6354 2.66329 24.6354 2.76082 24.7188C2.81655 24.7744 2.85835 24.8161 2.85835 24.83C2.85835 24.8439 2.80262 24.8856 2.73295 24.9274C2.63543 24.9969 2.60756 25.0386 2.5797 25.1498C2.55183 25.2332 2.55183 25.2888 2.56576 25.2888C2.5797 25.2888 2.66329 25.2749 2.74689 25.2471L2.90015 25.2054L2.98374 25.2749C3.12307 25.3861 3.12307 25.3861 3.42959 25.4278C3.70824 25.4696 3.72217 25.4696 4.09835 25.4278L4.48847 25.3861L4.69746 25.2471L4.90645 25.1081L5.19903 25.1776L5.49162 25.2471L5.9096 25.1081L6.32758 24.9691L6.5505 25.0386C6.67589 25.0803 6.84309 25.1498 6.92668 25.1915C7.05208 25.2749 7.13567 25.2888 7.58152 25.3722L8.08309 25.4696L8.19455 25.3444C8.25028 25.2749 8.31995 25.2193 8.31995 25.2193C8.33388 25.2193 8.34781 25.2749 8.34781 25.3444C8.36174 25.4418 8.37568 25.4696 8.40354 25.4696C8.43141 25.4696 8.515 25.4835 8.61253 25.4974C8.76579 25.5113 8.79366 25.5252 8.93298 25.6503C9.08624 25.7754 9.10017 25.7893 9.30916 25.831L9.53209 25.8727L9.65748 25.7754C9.72714 25.7198 9.78287 25.6781 9.76894 25.6642C9.76894 25.6503 9.62962 25.6364 9.46242 25.6225C9.29523 25.6086 9.16984 25.5947 9.15591 25.5947C9.15591 25.5947 9.16984 25.5252 9.21164 25.4557C9.29523 25.3027 9.26737 25.3027 9.74108 25.3861C10.0058 25.4418 10.1451 25.4418 10.3123 25.4418C10.4377 25.4279 10.7582 25.4279 11.0229 25.4139L11.5105 25.4L11.5802 25.5391L11.6498 25.6781L11.8588 25.7198C11.9703 25.7476 12.0957 25.7615 12.1236 25.7615C12.1514 25.7615 12.3047 25.7059 12.4719 25.6364C12.6391 25.5669 12.7645 25.5113 12.7784 25.5113C12.7923 25.5113 12.8202 25.5669 12.862 25.6225C12.9038 25.6781 12.9456 25.7337 12.9595 25.7476C12.9735 25.7615 13.1824 25.692 13.4472 25.6086L13.9069 25.4557L14.2971 25.5252C14.52 25.5669 14.7011 25.5947 14.7011 25.5947C14.7011 25.5947 14.6872 25.692 14.6732 25.7893C14.6454 25.9005 14.6314 25.9979 14.6454 25.9979C14.6454 26.0118 14.7847 25.9561 14.9519 25.8866L14.9937 25.9701Z" fill="#AD3C28"/>
</svg>
